<?xml version="1.0" encoding="UTF-8" standalone="no"?>
<!-- Created with Inkscape (http://www.inkscape.org/) -->

<svg
   width="198.86716mm"
   height="193.81581mm"
   viewBox="0 0 198.86718 193.81581"
   version="1.1"
   id="svg7051"
   inkscape:version="1.2 (dc2aedaf03, 2022-05-15)"
   sodipodi:docname="editPalette.svg"
   inkscape:export-filename="editPalette.png"
   inkscape:export-xdpi="96"
   inkscape:export-ydpi="96"
   xml:space="preserve"
   xmlns:inkscape="http://www.inkscape.org/namespaces/inkscape"
   xmlns:sodipodi="http://sodipodi.sourceforge.net/DTD/sodipodi-0.dtd"
   xmlns="http://www.w3.org/2000/svg"
   xmlns:svg="http://www.w3.org/2000/svg"><sodipodi:namedview
     id="namedview7053"
     pagecolor="#ffffff"
     bordercolor="#000000"
     borderopacity="0.25"
     inkscape:showpageshadow="2"
     inkscape:pageopacity="0.0"
     inkscape:pagecheckerboard="0"
     inkscape:deskcolor="#d1d1d1"
     inkscape:document-units="mm"
     showgrid="false"
     inkscape:zoom="0.70710678"
     inkscape:cx="238.29499"
     inkscape:cy="298.39906"
     inkscape:window-width="1920"
     inkscape:window-height="1009"
     inkscape:window-x="-8"
     inkscape:window-y="-8"
     inkscape:window-maximized="1"
     inkscape:current-layer="layer1" /><defs
     id="defs7048" /><g
     inkscape:label="Layer 1"
     inkscape:groupmode="layer"
     id="layer1"
     transform="translate(-4.7880937,-50.930637)"><path
       id="path3791"
       style="fill:#e7e7eb;fill-opacity:0.989848;stroke:#000000;stroke-width:13.8385;stroke-linecap:round;stroke-linejoin:round;stroke-dasharray:none;stroke-opacity:1"
       d="m 102.9618,57.856709 a 92.51432,72.665161 0 0 0 -91.2463,73.617101 92.51432,72.665161 0 0 0 93.68773,71.70057 92.51432,72.665161 0 0 0 30.71785,-4.45141 40.561314,21.747769 0 0 1 -28.44377,-20.45584 40.561314,21.747769 0 0 1 40.0054,-22.03244 40.561314,21.747769 0 0 1 36.13036,11.31323 92.51432,72.665161 0 0 0 12.91607,-37.9301 l -0.003,-0.12348 A 92.51432,72.665161 0 0 0 102.9618,57.856709 Z" /><path
       style="fill:#4db25e;fill-opacity:0.989848;stroke:none;stroke-width:7.01041;stroke-linecap:round;stroke-linejoin:round"
       id="path2889-0"
       sodipodi:type="arc"
       sodipodi:cx="99.189301"
       sodipodi:cy="85.396561"
       sodipodi:rx="27.676931"
       sodipodi:ry="16.606159"
       sodipodi:start="6.2708404"
       sodipodi:end="6.2691396"
       sodipodi:open="true"
       sodipodi:arc-type="arc"
       d="M 126.86412,85.191564 A 27.676931,16.606159 0 0 1 99.542728,102.00137 27.676931,16.606159 0 0 1 71.514779,85.615678 27.676931,16.606159 0 0 1 98.812338,68.791942 27.676931,16.606159 0 0 1 126.8635,85.163323" /><path
       style="fill:#c44b4b;fill-opacity:0.989848;stroke:none;stroke-width:7.0104;stroke-linecap:round;stroke-linejoin:round"
       id="path2889-0-0"
       sodipodi:type="arc"
       sodipodi:cx="152.16093"
       sodipodi:cy="111.11802"
       sodipodi:rx="27.676931"
       sodipodi:ry="16.606159"
       sodipodi:start="6.2708404"
       sodipodi:end="6.2691396"
       sodipodi:open="true"
       sodipodi:arc-type="arc"
       d="m 179.83576,110.91302 a 27.676931,16.606159 0 0 1 -27.3214,16.8098 27.676931,16.606159 0 0 1 -28.02795,-16.38568 27.676931,16.606159 0 0 1 27.29756,-16.82374 27.676931,16.606159 0 0 1 28.05117,16.37138" /><path
       style="fill:#e8ab31;fill-opacity:0.989848;stroke:none;stroke-width:7.01041;stroke-linecap:round;stroke-linejoin:round"
       id="path2889-0-3"
       sodipodi:type="arc"
       sodipodi:cx="52.927929"
       sodipodi:cy="115.98927"
       sodipodi:rx="27.676931"
       sodipodi:ry="16.606159"
       sodipodi:start="6.2708404"
       sodipodi:end="6.2691396"
       sodipodi:open="true"
       sodipodi:arc-type="arc"
       d="M 80.602751,115.78428 A 27.676931,16.606159 0 0 1 53.281357,132.59408 27.676931,16.606159 0 0 1 25.253407,116.20839 27.676931,16.606159 0 0 1 52.550967,99.384654 27.676931,16.606159 0 0 1 80.60213,115.75604" /><path
       style="fill:#5379c5;fill-opacity:0.989848;stroke:none;stroke-width:7.0104;stroke-linecap:round;stroke-linejoin:round"
       id="path2889-0-07"
       sodipodi:type="arc"
       sodipodi:cx="64.37709"
       sodipodi:cy="155.55"
       sodipodi:rx="27.676931"
       sodipodi:ry="16.606159"
       sodipodi:start="6.2708404"
       sodipodi:end="6.2691396"
       sodipodi:open="true"
       sodipodi:arc-type="arc"
       d="m 92.051913,155.34501 a 27.676931,16.606159 0 0 1 -27.321395,16.8098 27.676931,16.606159 0 0 1 -28.027949,-16.38569 27.676931,16.606159 0 0 1 27.297559,-16.82374 27.676931,16.606159 0 0 1 28.051164,16.37139" /><path
       id="path15582"
       style="fill:#000000;fill-opacity:1;stroke:#000000;stroke-width:8.45541;stroke-linecap:round;stroke-linejoin:round;stroke-dasharray:none;stroke-opacity:1"
       d="m 146.92847,213.85482 11.79869,14.51898 37.03461,-30.63725 -12.0721,-14.23333 z m -12.26063,10.72326 -4.56967,15.94074 16.61903,-2.26462 z"
       sodipodi:nodetypes="ccccccccc" /></g></svg>
