<?xml version="1.0" encoding="UTF-8" standalone="no"?>
<!-- Created with Inkscape (http://www.inkscape.org/) -->

<svg
   width="148.73233mm"
   height="100.82127mm"
   viewBox="0 0 148.73233 100.82129"
   version="1.1"
   id="svg5"
   inkscape:version="1.2 (dc2aedaf03, 2022-05-15)"
   sodipodi:docname="EZEthogram.svg"
   inkscape:export-filename="EZEthogram.png"
   inkscape:export-xdpi="96"
   inkscape:export-ydpi="96"
   xmlns:inkscape="http://www.inkscape.org/namespaces/inkscape"
   xmlns:sodipodi="http://sodipodi.sourceforge.net/DTD/sodipodi-0.dtd"
   xmlns="http://www.w3.org/2000/svg"
   xmlns:svg="http://www.w3.org/2000/svg">
  <sodipodi:namedview
     id="namedview7"
     pagecolor="#ffffff"
     bordercolor="#000000"
     borderopacity="0.25"
     inkscape:showpageshadow="2"
     inkscape:pageopacity="0.0"
     inkscape:pagecheckerboard="0"
     inkscape:deskcolor="#d1d1d1"
     inkscape:document-units="mm"
     showgrid="false"
     inkscape:zoom="1.4142136"
     inkscape:cx="198.34345"
     inkscape:cy="173.94827"
     inkscape:window-width="1920"
     inkscape:window-height="1009"
     inkscape:window-x="-8"
     inkscape:window-y="-8"
     inkscape:window-maximized="1"
     inkscape:current-layer="layer1" />
  <defs
     id="defs2">
    <rect
       x="177.31174"
       y="147.30513"
       width="351.8956"
       height="167.76418"
       id="rect427" />
  </defs>
  <g
     inkscape:label="Layer 1"
     inkscape:groupmode="layer"
     id="layer1"
     transform="translate(-7.6683362,-8.510406)">
    <path
       id="rect7433"
       style="fill:#138ad2;fill-opacity:1;stroke:none;stroke-width:6.7474;stroke-dasharray:none;stroke-opacity:1"
       d="m 7.6683403,8.510406 v 22 h 2.105818 v -22 z m 3.9796057,0 v 22 h 2.449983 v -22 z m 2.738339,0 v 22 h 13.980557 v -22 z m 16.575233,0 v 22 h 2.017968 v -22 z m 2.882516,0 v 22 h 1.152902 v -22 z m 3.315046,0 v 22 h 10.089317 v -22 z m 10.810205,0 v 22 h 1.873273 v -22 z m 2.59416,0 v 22 h 1.873789 v -22 z m 4.035416,0 v 22 h 1.873791 v -22 z m 2.738854,0 v 22 h 12.827656 v -22 z m 13.692204,0 v 22 h 5.638421 v -22 z" />
    <path
       id="rect7433-4"
       style="fill:#e5a800;fill-opacity:1;stroke:none;stroke-width:5.91364;stroke-dasharray:none;stroke-opacity:1"
       d="m 7.6683403,36.923137 v 22 H 19.142079 v -22 z m 12.5847117,0 v 22 h 1.666707 v -22 z m 4.861188,0 v 22 h 13.055791 v -22 z m 14.583565,0 v 22 h 1.805641 v -22 z m 3.055548,0 v 22 h 0.69417 v -22 z m 1.388838,0 v 22 H 60.66834 v -22 z" />
    <path
       id="rect7433-0"
       style="fill:#d90000;fill-opacity:1;stroke:none;stroke-width:6.7474;stroke-dasharray:none;stroke-opacity:1"
       d="m 87.400662,8.510406 v 21.999368 h 2.06269 V 8.510406 Z m 4.08056,0 v 21.999368 h 1.7299 V 8.510406 Z m 2.7391,0 v 21.999368 h 1.40143 v 6.32e-4 h 3.31555 v -22 h -3.13187 -0.18368 z m 5.76509,0 V 30.509774 H 110.36321 V 8.510406 Z m 11.674418,0 v 21.999368 h 1.4414 V 8.510406 Z m 2.73855,0 v 21.999368 h 5.47713 V 8.510406 Z m 6.63005,0 v 21.999368 h 6.63003 V 8.510406 Z m 8.21568,0 v 21.999368 h 0.577 V 8.510406 Z m 1.29715,0 v 21.999368 h 10.95426 V 8.510406 Z m 11.96292,0 v 21.999368 h 0.86549 V 8.510406 Z m 3.02706,0 v 21.999368 h 1.15345 V 8.510406 Z m 2.16211,0 v 21.999368 h 8.70732 V 8.510406 Z" />
    <path
       id="rect7433-49-2"
       style="fill:#363541;fill-opacity:1;stroke:none;stroke-width:2.69957;stroke-dasharray:none;stroke-opacity:1"
       d="m 139.89602,33.696243 -47.286061,28.195368 10.813111,-0.02663 47.28535,-28.19536 z" />
    <text
       xml:space="preserve"
       style="font-size:23.4164px;letter-spacing:0px;fill:#363541;fill-opacity:1;stroke:#373540;stroke-width:1.01617;stroke-dasharray:none;stroke-opacity:1"
       x="5.3056669"
       y="111.75873"
       id="text7535"
       transform="scale(1.0254409,0.97519028)"><tspan
         sodipodi:role="line"
         id="tspan7533"
         style="font-style:normal;font-variant:normal;font-weight:bold;font-stretch:normal;font-size:23.4164px;font-family:sans-serif;-inkscape-font-specification:'sans-serif Bold';fill:#363541;fill-opacity:1;stroke:none;stroke-width:1.01617;stroke-dasharray:none;stroke-opacity:1"
         x="5.3056669"
         y="111.75873">ETHOGRAM</tspan></text>
    <path
       id="rect7433-3"
       style="fill:#9c2dea;fill-opacity:1;stroke:none;stroke-width:6.7475;stroke-dasharray:none;stroke-opacity:1"
       d="m 87.026485,64.510406 v 22 h 3.24856 v -22 z m 5.20754,0 v 22 h 0.75204 v -22 z m 1.49759,0 v 22 h 8.524175 v -22 z m 10.654955,0 v 22 h 9.69599 v -22 z m 10.44208,0 v 22 h 0.7461 v -22 z m 2.66347,0 v 22 h 0.7461 v -22 z m 1.59862,0 v 22 h 9.26972 v -22 z m 11.6139,0 v 22 h 1.38522 v -22 z m 2.34417,0 v 22 h 0.85199 v -22 z m 2.02435,0 v 22 h 11.18765 v -22 z m 11.50747,0 v 22 h 1.49166 v -22 z m 2.87687,0 v 22 h 6.56899 v -22 z" />
    <path
       id="rect7433-8"
       style="fill:#05bb43;fill-opacity:1;stroke:none;stroke-width:6.7475;stroke-dasharray:none;stroke-opacity:1"
       d="m 7.6683403,64.510406 v 22 h 4.4116227 v -22 z m 5.7092197,0 v 22 h 2.01745 v -22 z m 5.044659,0 v 22 h 8.791721 v -22 z m 10.232978,0 v 22 h 3.747579 v -22 z m 5.909724,0 v 22 h 0.576192 v -22 z m 1.297079,0 v 22 h 10.377673 v -22 z m 12.395124,0 v 22 h 1.729612 v -22 z m 2.738853,0 v 22 h 8.791722 v -22 z m 10.089318,0 v 22 h 1.29708 v -22 z m 3.602885,0 v 22 h 0.432533 v -22 z m 1.297597,0 v 22 h 8.935899 v -22 z m 9.800962,0 v 22 h 0.881602 v -22 z" />
    <path
       id="path6285"
       style="fill:#138ad2;fill-opacity:1;stroke:none;stroke-width:6.7474;stroke-dasharray:none;stroke-opacity:1"
       d="m 7.6683403,8.510406 v 22 h 2.105818 v -22 z m 3.9796057,0 v 22 h 2.449983 v -22 z m 2.738339,0 v 22 h 13.980557 v -22 z m 16.575233,0 v 22 h 2.017968 v -22 z m 2.882516,0 v 22 h 1.152902 v -22 z m 3.315046,0 v 22 h 10.089317 v -22 z m 10.810205,0 v 22 h 1.873273 v -22 z m 2.59416,0 v 22 h 1.873789 v -22 z m 4.035416,0 v 22 h 1.873791 v -22 z m 2.738854,0 v 22 h 12.827656 v -22 z m 13.692204,0 v 22 h 5.638421 v -22 z" />
    <path
       id="path6287"
       style="fill:#e5a800;fill-opacity:1;stroke:none;stroke-width:5.91364;stroke-dasharray:none;stroke-opacity:1"
       d="m 7.6683403,36.923137 v 22 H 19.142079 v -22 z m 12.5847117,0 v 22 h 1.666707 v -22 z m 4.861188,0 v 22 h 13.055791 v -22 z m 14.583565,0 v 22 h 1.805641 v -22 z m 3.055548,0 v 22 h 0.69417 v -22 z m 1.388838,0 v 22 H 60.66834 v -22 z" />
    <path
       id="path6289"
       style="fill:#d90000;fill-opacity:1;stroke:none;stroke-width:6.7474;stroke-dasharray:none;stroke-opacity:1"
       d="m 87.400662,8.510406 v 21.999368 h 2.06269 V 8.510406 Z m 4.08056,0 v 21.999368 h 1.7299 V 8.510406 Z m 2.7391,0 v 21.999368 h 1.40143 v 6.32e-4 h 3.31555 v -22 h -3.13187 -0.18368 z m 5.76509,0 V 30.509774 H 110.36321 V 8.510406 Z m 11.674418,0 v 21.999368 h 1.4414 V 8.510406 Z m 2.73855,0 v 21.999368 h 5.47713 V 8.510406 Z m 6.63005,0 v 21.999368 h 6.63003 V 8.510406 Z m 8.21568,0 v 21.999368 h 0.577 V 8.510406 Z m 1.29715,0 v 21.999368 h 10.95426 V 8.510406 Z m 11.96292,0 v 21.999368 h 0.86549 V 8.510406 Z m 3.02706,0 v 21.999368 h 1.15345 V 8.510406 Z m 2.16211,0 v 21.999368 h 8.70732 V 8.510406 Z" />
    <path
       id="path6291"
       style="fill:#363541;fill-opacity:1;stroke:none;stroke-width:2.69957;stroke-dasharray:none;stroke-opacity:1"
       d="m 139.89602,33.696243 -47.286061,28.195368 10.813111,-0.02663 47.28535,-28.19536 z" />
    <text
       xml:space="preserve"
       style="font-size:23.4164px;letter-spacing:0px;fill:#363541;fill-opacity:1;stroke:#373540;stroke-width:1.01617;stroke-dasharray:none;stroke-opacity:1"
       x="5.3056669"
       y="111.75873"
       id="text6295"
       transform="scale(1.0254409,0.97519028)"><tspan
         sodipodi:role="line"
         id="tspan6293"
         style="font-style:normal;font-variant:normal;font-weight:bold;font-stretch:normal;font-size:23.4164px;font-family:sans-serif;-inkscape-font-specification:'sans-serif Bold';fill:#363541;fill-opacity:1;stroke:none;stroke-width:1.01617;stroke-dasharray:none;stroke-opacity:1"
         x="5.3056669"
         y="111.75873">ETHOGRAM</tspan></text>
    <path
       id="path6297"
       style="fill:#9c2dea;fill-opacity:1;stroke:none;stroke-width:6.7475;stroke-dasharray:none;stroke-opacity:1"
       d="m 87.026485,64.510406 v 22 h 3.24856 v -22 z m 5.20754,0 v 22 h 0.75204 v -22 z m 1.49759,0 v 22 h 8.524175 v -22 z m 10.654955,0 v 22 h 9.69599 v -22 z m 10.44208,0 v 22 h 0.7461 v -22 z m 2.66347,0 v 22 h 0.7461 v -22 z m 1.59862,0 v 22 h 9.26972 v -22 z m 11.6139,0 v 22 h 1.38522 v -22 z m 2.34417,0 v 22 h 0.85199 v -22 z m 2.02435,0 v 22 h 11.18765 v -22 z m 11.50747,0 v 22 h 1.49166 v -22 z m 2.87687,0 v 22 h 6.56899 v -22 z" />
    <path
       id="path6299"
       style="fill:#05bb43;fill-opacity:1;stroke:none;stroke-width:6.7475;stroke-dasharray:none;stroke-opacity:1"
       d="m 7.6683403,64.510406 v 22 h 4.4116227 v -22 z m 5.7092197,0 v 22 h 2.01745 v -22 z m 5.044659,0 v 22 h 8.791721 v -22 z m 10.232978,0 v 22 h 3.747579 v -22 z m 5.909724,0 v 22 h 0.576192 v -22 z m 1.297079,0 v 22 h 10.377673 v -22 z m 12.395124,0 v 22 h 1.729612 v -22 z m 2.738853,0 v 22 h 8.791722 v -22 z m 10.089318,0 v 22 h 1.29708 v -22 z m 3.602885,0 v 22 h 0.432533 v -22 z m 1.297597,0 v 22 h 8.935899 v -22 z m 9.800962,0 v 22 h 0.881602 v -22 z" />
  </g>
</svg>
