<?xml version="1.0" encoding="UTF-8" standalone="no"?>
<!-- Created with Inkscape (http://www.inkscape.org/) -->

<svg
   width="210mm"
   height="297mm"
   viewBox="0 0 210 297"
   version="1.1"
   id="svg5"
   inkscape:version="1.2 (dc2aedaf03, 2022-05-15)"
   sodipodi:docname="EZEthogram.svg"
   xmlns:inkscape="http://www.inkscape.org/namespaces/inkscape"
   xmlns:sodipodi="http://sodipodi.sourceforge.net/DTD/sodipodi-0.dtd"
   xmlns="http://www.w3.org/2000/svg"
   xmlns:svg="http://www.w3.org/2000/svg">
  <sodipodi:namedview
     id="namedview7"
     pagecolor="#ffffff"
     bordercolor="#000000"
     borderopacity="0.25"
     inkscape:showpageshadow="2"
     inkscape:pageopacity="0.0"
     inkscape:pagecheckerboard="0"
     inkscape:deskcolor="#d1d1d1"
     inkscape:document-units="mm"
     showgrid="false"
     inkscape:zoom="0.91785218"
     inkscape:cx="386.22777"
     inkscape:cy="448.87402"
     inkscape:window-width="1920"
     inkscape:window-height="1009"
     inkscape:window-x="-8"
     inkscape:window-y="-8"
     inkscape:window-maximized="1"
     inkscape:current-layer="layer1" />
  <defs
     id="defs2">
    <rect
       x="177.31174"
       y="147.30513"
       width="351.8956"
       height="167.76418"
       id="rect427" />
  </defs>
  <g
     inkscape:label="Layer 1"
     inkscape:groupmode="layer"
     id="layer1">
    <path
       id="rect7433"
       style="fill:#000000;fill-opacity:1;stroke:none;stroke-width:6.10325;stroke-dasharray:none;stroke-opacity:1"
       d="m 7.8393589,8.510406 v 18 h 2.105818 v -18 z m 3.9796061,0 v 18 h 2.449983 v -18 z m 2.738339,0 v 18 h 13.980557 v -18 z m 16.575233,0 v 18 h 2.017968 v -18 z m 2.882516,0 v 18 h 1.152902 v -18 z m 3.315046,0 v 18 h 10.089317 v -18 z m 10.810205,0 v 18 h 1.873273 v -18 z m 2.59416,0 v 18 h 1.873789 v -18 z m 4.035416,0 v 18 h 1.873791 v -18 z m 2.738854,0 v 18 H 70.33639 v -18 z m 13.692204,0 v 18 h 5.638421 v -18 z" />
    <path
       id="rect7433-4"
       style="fill:#000000;fill-opacity:1;stroke:none;stroke-width:5.34908;stroke-dasharray:none;stroke-opacity:1"
       d="m 7.8393589,38.510638 v 17.99994 H 19.313098 v -17.99994 z m 12.5847121,0 v 17.99994 h 1.666707 v -17.99994 z m 4.861188,0 v 17.99994 H 38.34105 v -17.99994 z m 14.583565,0 v 17.99994 h 1.805641 v -17.99994 z m 3.055548,0 v 17.99994 h 0.69417 v -17.99994 z m 1.388838,0 v 17.99994 h 16.526149 v -17.99994 z" />
    <path
       id="rect7433-0"
       style="fill:#000000;fill-opacity:1;stroke:none;stroke-width:6.10333;stroke-dasharray:none;stroke-opacity:1"
       d="m 86.839396,8.510406 v 17.999935 h 2.06269 V 8.510406 Z m 4.08056,0 v 17.999935 h 1.7299 V 8.510406 Z m 2.7391,0 v 17.999935 h 1.40143 v 5.17e-4 h 3.31555 V 8.510406 h -3.13187 -0.18368 z m 5.76509,0 V 26.510341 H 109.80194 V 8.510406 Z m 11.674414,0 v 17.999935 h 1.4414 V 8.510406 Z m 2.73855,0 v 17.999935 h 5.47713 V 8.510406 Z m 6.63005,0 v 17.999935 h 6.63003 V 8.510406 Z m 8.21568,0 v 17.999935 h 0.577 V 8.510406 Z m 1.29715,0 v 17.999935 h 10.95426 V 8.510406 Z m 11.96292,0 v 17.999935 h 0.86549 V 8.510406 Z m 3.02706,0 v 17.999935 h 1.15345 V 8.510406 Z m 2.16211,0 v 17.999935 h 8.70732 V 8.510406 Z" />
    <path
       id="rect7433-49-2"
       style="fill:#000000;fill-opacity:1;stroke:#000000;stroke-width:2.44463;stroke-dasharray:none;stroke-opacity:1"
       d="m 138.44054,31.807588 -45.573544,31.51204 h 7.901214 l 45.57303,-31.51204 z" />
    <text
       xml:space="preserve"
       style="font-size:25.8841px;fill:#000000;fill-opacity:1;stroke:#000000;stroke-width:1.01039;stroke-dasharray:none;stroke-opacity:1"
       x="5.4885869"
       y="115.64164"
       id="text7535"
       transform="scale(1.0196105,0.98076668)"><tspan
         sodipodi:role="line"
         id="tspan7533"
         style="font-size:25.8841px;fill:#000000;fill-opacity:1;stroke:#000000;stroke-width:1.01039;stroke-dasharray:none;stroke-opacity:1"
         x="5.4885869"
         y="115.64164">ETHOGRAM</tspan></text>
    <path
       id="rect7433-3"
       style="fill:#000000;fill-opacity:1;stroke:none;stroke-width:6.10333;stroke-dasharray:none;stroke-opacity:1"
       d="m 86.839396,68.510878 v 17.99993 h 3.24856 v -17.99993 z m 5.20754,0 v 17.99993 h 0.75204 v -17.99993 z m 1.49759,0 v 17.99993 h 8.524174 v -17.99993 z m 10.654954,0 v 17.99993 h 9.69599 v -17.99993 z m 10.44208,0 v 17.99993 h 0.7461 v -17.99993 z m 2.66347,0 v 17.99993 h 0.7461 v -17.99993 z m 1.59862,0 v 17.99993 h 9.26972 v -17.99993 z m 11.6139,0 v 17.99993 h 1.38522 v -17.99993 z m 2.34417,0 v 17.99993 h 0.85199 v -17.99993 z m 2.02435,0 v 17.99993 h 11.18765 v -17.99993 z m 11.50747,0 v 17.99993 h 1.49166 v -17.99993 z m 2.87687,0 v 17.99993 h 6.56899 v -17.99993 z" />
    <path
       id="rect7433-8"
       style="fill:#000000;fill-opacity:1;stroke:none;stroke-width:6.10333;stroke-dasharray:none;stroke-opacity:1"
       d="m 7.8393589,68.510878 v 17.99993 h 4.4116221 v -17.99993 z m 5.7092191,0 v 17.99993 h 2.01745 v -17.99993 z m 5.044659,0 v 17.99993 h 8.791721 v -17.99993 z m 10.232978,0 v 17.99993 h 3.747579 v -17.99993 z m 5.909724,0 v 17.99993 h 0.576192 v -17.99993 z m 1.297079,0 v 17.99993 h 10.377673 v -17.99993 z m 12.395124,0 v 17.99993 h 1.729612 v -17.99993 z m 2.738853,0 v 17.99993 h 8.791722 v -17.99993 z m 10.089318,0 v 17.99993 h 1.29708 v -17.99993 z m 3.602885,0 v 17.99993 h 0.432533 v -17.99993 z m 1.297597,0 v 17.99993 h 8.935899 v -17.99993 z m 9.800962,0 v 17.99993 h 0.881602 v -17.99993 z" />
  </g>
</svg>
