<?xml version="1.0" encoding="UTF-8" standalone="no"?>
<!-- Created with Inkscape (http://www.inkscape.org/) -->

<svg
   width="69mm"
   height="78mm"
   viewBox="0 0 69 78.000013"
   version="1.1"
   id="svg5"
   inkscape:version="1.2 (dc2aedaf03, 2022-05-15)"
   sodipodi:docname="logo.svg"
   inkscape:export-filename="EZEthogram.png"
   inkscape:export-xdpi="96"
   inkscape:export-ydpi="96"
   xmlns:inkscape="http://www.inkscape.org/namespaces/inkscape"
   xmlns:sodipodi="http://sodipodi.sourceforge.net/DTD/sodipodi-0.dtd"
   xmlns="http://www.w3.org/2000/svg"
   xmlns:svg="http://www.w3.org/2000/svg">
  <sodipodi:namedview
     id="namedview7"
     pagecolor="#ffffff"
     bordercolor="#000000"
     borderopacity="0.25"
     inkscape:showpageshadow="2"
     inkscape:pageopacity="0.0"
     inkscape:pagecheckerboard="0"
     inkscape:deskcolor="#d1d1d1"
     inkscape:document-units="mm"
     showgrid="false"
     inkscape:zoom="1.4142136"
     inkscape:cx="199.05055"
     inkscape:cy="174.65537"
     inkscape:window-width="1920"
     inkscape:window-height="1009"
     inkscape:window-x="-8"
     inkscape:window-y="-8"
     inkscape:window-maximized="1"
     inkscape:current-layer="layer1" />
  <defs
     id="defs2">
    <rect
       x="177.31174"
       y="147.30513"
       width="351.8956"
       height="167.76418"
       id="rect427" />
  </defs>
  <g
     inkscape:label="Layer 1"
     inkscape:groupmode="layer"
     id="layer1"
     transform="translate(-7.6683403,-8.510406)">
    <path
       id="rect7433"
       style="fill:#138ad2;fill-opacity:1;stroke:none;stroke-width:6.7474;stroke-dasharray:none;stroke-opacity:1"
       d="m 7.6683403,8.510406 v 22 h 2.105818 v -22 z m 3.9796057,0 v 22 h 2.449983 v -22 z m 2.738339,0 v 22 h 13.980557 v -22 z m 16.575233,0 v 22 h 2.017968 v -22 z m 2.882516,0 v 22 h 1.152902 v -22 z m 3.315046,0 v 22 h 10.089317 v -22 z m 10.810205,0 v 22 h 1.873273 v -22 z m 2.59416,0 v 22 h 1.873789 v -22 z m 4.035416,0 v 22 h 1.873791 v -22 z m 2.738854,0 v 22 h 12.827656 v -22 z m 13.692204,0 v 22 h 5.638421 v -22 z" />
    <path
       id="rect7433-4"
       style="fill:#e5a800;fill-opacity:1;stroke:none;stroke-width:5.91364;stroke-dasharray:none;stroke-opacity:1"
       d="m 7.6683403,36.923137 v 22 H 19.142079 v -22 z m 12.5847117,0 v 22 h 1.666707 v -22 z m 4.861188,0 v 22 h 13.055791 v -22 z m 14.583565,0 v 22 h 1.805641 v -22 z m 3.055548,0 v 22 h 0.69417 v -22 z m 1.388838,0 v 22 H 60.66834 v -22 z" />
    <path
       id="rect7433-8"
       style="fill:#05bb43;fill-opacity:1;stroke:none;stroke-width:6.7475;stroke-dasharray:none;stroke-opacity:1"
       d="m 7.6683403,64.510406 v 22 h 4.4116227 v -22 z m 5.7092197,0 v 22 h 2.01745 v -22 z m 5.044659,0 v 22 h 8.791721 v -22 z m 10.232978,0 v 22 h 3.747579 v -22 z m 5.909724,0 v 22 h 0.576192 v -22 z m 1.297079,0 v 22 h 10.377673 v -22 z m 12.395124,0 v 22 h 1.729612 v -22 z m 2.738853,0 v 22 h 8.791722 v -22 z m 10.089318,0 v 22 h 1.29708 v -22 z m 3.602885,0 v 22 h 0.432533 v -22 z m 1.297597,0 v 22 h 8.935899 v -22 z m 9.800962,0 v 22 h 0.881602 v -22 z" />
    <path
       id="path6285"
       style="fill:#138ad2;fill-opacity:1;stroke:none;stroke-width:6.7474;stroke-dasharray:none;stroke-opacity:1"
       d="m 7.6683403,8.510406 v 22 h 2.105818 v -22 z m 3.9796057,0 v 22 h 2.449983 v -22 z m 2.738339,0 v 22 h 13.980557 v -22 z m 16.575233,0 v 22 h 2.017968 v -22 z m 2.882516,0 v 22 h 1.152902 v -22 z m 3.315046,0 v 22 h 10.089317 v -22 z m 10.810205,0 v 22 h 1.873273 v -22 z m 2.59416,0 v 22 h 1.873789 v -22 z m 4.035416,0 v 22 h 1.873791 v -22 z m 2.738854,0 v 22 h 12.827656 v -22 z m 13.692204,0 v 22 h 5.638421 v -22 z" />
    <path
       id="path6287"
       style="fill:#e5a800;fill-opacity:1;stroke:none;stroke-width:5.91364;stroke-dasharray:none;stroke-opacity:1"
       d="m 7.6683403,36.923137 v 22 H 19.142079 v -22 z m 12.5847117,0 v 22 h 1.666707 v -22 z m 4.861188,0 v 22 h 13.055791 v -22 z m 14.583565,0 v 22 h 1.805641 v -22 z m 3.055548,0 v 22 h 0.69417 v -22 z m 1.388838,0 v 22 H 60.66834 v -22 z" />
    <path
       id="path6299"
       style="fill:#05bb43;fill-opacity:1;stroke:none;stroke-width:6.7475;stroke-dasharray:none;stroke-opacity:1"
       d="m 7.6683403,64.510406 v 22 h 4.4116227 v -22 z m 5.7092197,0 v 22 h 2.01745 v -22 z m 5.044659,0 v 22 h 8.791721 v -22 z m 10.232978,0 v 22 h 3.747579 v -22 z m 5.909724,0 v 22 h 0.576192 v -22 z m 1.297079,0 v 22 h 10.377673 v -22 z m 12.395124,0 v 22 h 1.729612 v -22 z m 2.738853,0 v 22 h 8.791722 v -22 z m 10.089318,0 v 22 h 1.29708 v -22 z m 3.602885,0 v 22 h 0.432533 v -22 z m 1.297597,0 v 22 h 8.935899 v -22 z m 9.800962,0 v 22 h 0.881602 v -22 z" />
  </g>
</svg>
